<mxfile host="app.diagrams.net" modified="2024-01-12T06:22:40.474Z" agent="Mozilla/5.0 (Macintosh; Intel Mac OS X 10_15_7) AppleWebKit/537.36 (KHTML, like Gecko) Chrome/120.0.0.0 Safari/537.36" version="21.6.7" etag="kJE0203lebh_OfuCHZMD" type="github">
  <diagram name="第 1 页" id="SVyUZgikIyTvoBb2fM5v">
    <mxGraphModel>
      <root>
        <mxCell id="0" />
        <mxCell id="1" parent="0" />
      </root>
    </mxGraphModel>
  </diagram>
</mxfile>
